<svg xmlns="http://www.w3.org/2000/svg" viewBox="0 0 114.3 168.73"><defs><style>.cls-1{fill:#fff;stroke:#000;stroke-miterlimit:10;}</style></defs><title>Ресурс 1</title><g id="Слой_2" data-name="Слой 2"><g id="Слой_1-2" data-name="Слой 1"><polygon class="cls-1" points="16.32 0.5 65.21 0.5 81.08 16.26 81.08 31.19 95.91 31.19 110.96 46.73 111.38 113.8 96.58 128.89 113.54 168.23 90.21 168.23 71.72 125.35 90.79 106.04 90.81 55.36 87.19 51.59 50.83 51.53 51.04 88.15 30.64 88.16 30.56 31.14 60.42 31.11 60.47 24.96 56.84 21.11 25.15 20.99 20.95 25.19 20.95 94.11 24.75 98.35 56.9 98.3 60.81 94.27 60.73 61.32 81.17 61.32 81.31 102.7 64.93 119.1 53.89 119.17 65.61 145.76 42.09 145.76 30.72 118.61 16.32 118.96 0.5 102.77 0.5 16.3 16.32 0.5"/></g></g></svg>